<svg width="1168" height="188" viewBox="0 0 1168 188" fill="none" xmlns="http://www.w3.org/2000/svg">
<path d="M61.6982 153.905C66.309 158.087 73.7433 165.807 73.5646 172.026C73.5646 172.312 73.5289 172.598 73.5289 172.92C72.8855 179.997 66.8093 184.035 59.5537 184C50.6181 183.964 45.2925 177.995 45.7215 171.204C46.0789 165.414 53.0486 158.087 57.3019 154.191C58.124 153.44 58.267 153.226 59.3035 152.904C60.5187 152.904 60.6974 153.011 61.6982 153.905ZM109.628 25.0542C103.803 15.8685 95.832 10.5429 87.0037 6.43256C77.8894 2.60814 67.4884 0.928259 59.6252 0.999744C43.8629 0.999744 34.1767 5.71771 30.6382 7.18314C11.4804 17.1552 0.471841 32.1669 1.00797 57.6869C3.54567 87.0669 35.6779 120.593 56.6943 141.252C57.3019 141.824 58.3027 142.86 58.9103 143.075L60.0898 143.111C60.8404 142.86 60.7332 142.932 61.3408 142.36C80.034 124.775 111.63 90.248 117.063 65.2642C119.565 51.2533 118.171 39.3511 109.628 25.0542ZM57.7666 126.776C47.7588 108.512 34.4627 80.0615 32.9972 59.2238C31.782 42.2462 37.0718 12.33 57.7666 10.3642V126.776ZM108.485 65.3357C102.623 85.6372 80.856 111.086 65.9873 126.205C75.9236 107.654 89.2912 78.5603 90.006 57.6154C90.5779 41.2097 86.5033 19.8001 72.8498 10.6501C104.589 17.191 114.132 45.7132 108.485 65.3357Z" fill="#0085FF"/>
<path d="M207.324 184V5.66864H239.933V79.8035H319.927V5.66864H352.536V184H319.927V106.298H239.933V184H207.324Z" fill="#0085FF"/>
<path d="M454.199 187.057C441.461 187.057 430.167 184.339 420.316 178.905C410.465 173.47 402.738 165.827 397.133 155.976C391.528 146.126 388.726 134.746 388.726 121.839C388.726 108.761 391.443 97.1271 396.878 86.9367C402.483 76.7464 410.126 68.8488 419.807 63.2441C429.657 57.4696 441.206 54.5823 454.454 54.5823C466.852 54.5823 477.807 57.2998 487.318 62.7346C496.829 68.1695 504.217 75.6424 509.482 85.1534C514.917 94.4945 517.634 104.94 517.634 116.489C517.634 118.357 517.549 120.31 517.379 122.348C517.379 124.386 517.294 126.509 517.124 128.717H421.08C421.76 138.568 425.157 146.296 431.271 151.9C437.555 157.505 445.113 160.307 453.944 160.307C460.568 160.307 466.088 158.864 470.504 155.976C475.089 152.919 478.486 149.013 480.694 144.257H513.813C511.435 152.24 507.444 159.543 501.839 166.167C496.404 172.621 489.611 177.716 481.458 181.452C473.476 185.189 464.389 187.057 454.199 187.057ZM454.454 81.0772C446.471 81.0772 439.423 83.3701 433.309 87.9557C427.195 92.3716 423.288 99.1651 421.59 108.336H484.515C484.006 100.014 480.949 93.3906 475.344 88.4653C469.739 83.5399 462.776 81.0772 454.454 81.0772Z" fill="#0085FF"/>
<path d="M551.429 184V57.6394H580.472L583.529 81.332C588.115 73.1797 594.314 66.7258 602.126 61.9703C610.109 57.045 619.45 54.5823 630.15 54.5823V88.9748H620.978C613.845 88.9748 607.476 90.0787 601.872 92.2866C596.267 94.4945 591.851 98.3159 588.624 103.751C585.567 109.186 584.038 116.743 584.038 126.424V184H551.429Z" fill="#0085FF"/>
<path d="M658.806 184V57.6394H687.594L690.396 74.7083C694.472 68.5941 699.822 63.7536 706.446 60.187C713.24 56.4506 721.052 54.5823 729.884 54.5823C749.415 54.5823 763.257 62.1402 771.41 77.2559C775.995 70.2925 782.109 64.7727 789.752 60.6965C797.565 56.6204 806.057 54.5823 815.228 54.5823C831.702 54.5823 844.356 59.5077 853.187 69.3583C862.019 79.209 866.435 93.6453 866.435 112.667V184H833.826V115.724C833.826 104.855 831.703 96.5326 827.457 90.7581C823.38 84.9836 817.011 82.0963 808.35 82.0963C799.518 82.0963 792.385 85.3232 786.95 91.7771C781.685 98.231 779.052 107.232 779.052 118.782V184H746.443V115.724C746.443 104.855 744.32 96.5326 740.074 90.7581C735.828 84.9836 729.289 82.0963 720.458 82.0963C711.796 82.0963 704.748 85.3232 699.313 91.7771C694.048 98.231 691.415 107.232 691.415 118.782V184H658.806Z" fill="#0085FF"/>
<path d="M965.16 187.057C952.422 187.057 941.127 184.339 931.277 178.905C921.426 173.47 913.698 165.827 908.094 155.976C902.489 146.126 899.687 134.746 899.687 121.839C899.687 108.761 902.404 97.1271 907.839 86.9367C913.444 76.7464 921.086 68.8488 930.767 63.2441C940.618 57.4696 952.167 54.5823 965.414 54.5823C977.813 54.5823 988.767 57.2998 998.278 62.7346C1007.79 68.1695 1015.18 75.6424 1020.44 85.1534C1025.88 94.4945 1028.59 104.94 1028.59 116.489C1028.59 118.357 1028.51 120.31 1028.34 122.348C1028.34 124.386 1028.25 126.509 1028.09 128.717H932.041C932.72 138.568 936.117 146.296 942.231 151.9C948.515 157.505 956.073 160.307 964.905 160.307C971.529 160.307 977.048 158.864 981.464 155.976C986.05 152.919 989.447 149.013 991.655 144.257H1024.77C1022.4 152.24 1018.4 159.543 1012.8 166.167C1007.36 172.621 1000.57 177.716 992.419 181.452C984.436 185.189 975.35 187.057 965.16 187.057ZM965.414 81.0772C957.432 81.0772 950.384 83.3701 944.269 87.9557C938.155 92.3716 934.249 99.1651 932.55 108.336H995.476C994.966 100.014 991.909 93.3906 986.305 88.4653C980.7 83.5399 973.736 81.0772 965.414 81.0772Z" fill="#0085FF"/>
<path d="M1114.62 187.057C1103.41 187.057 1093.56 185.274 1085.06 181.707C1076.57 177.971 1069.78 172.875 1064.68 166.421C1059.59 159.968 1056.53 152.495 1055.51 144.003H1088.38C1089.39 148.928 1092.11 153.174 1096.53 156.741C1101.11 160.137 1106.97 161.836 1114.11 161.836C1121.24 161.836 1126.42 160.392 1129.65 157.505C1133.04 154.618 1134.74 151.306 1134.74 147.569C1134.74 142.134 1132.36 138.483 1127.61 136.615C1122.85 134.577 1116.23 132.623 1107.74 130.755C1102.3 129.566 1096.78 128.123 1091.18 126.424C1085.57 124.726 1080.39 122.603 1075.64 120.055C1071.05 117.338 1067.32 113.941 1064.43 109.865C1061.54 105.619 1060.1 100.439 1060.1 94.3247C1060.1 83.1153 1064.51 73.6892 1073.34 66.0465C1082.35 58.4037 1094.91 54.5823 1111.05 54.5823C1125.99 54.5823 1137.88 58.064 1146.72 65.0275C1155.72 71.9909 1161.07 81.5868 1162.76 93.8152H1131.94C1130.07 84.474 1123.02 79.8035 1110.79 79.8035C1104.68 79.8035 1099.92 80.9923 1096.53 83.3701C1093.3 85.7478 1091.69 88.72 1091.69 92.2866C1091.69 96.0231 1094.15 98.9953 1099.08 101.203C1104 103.411 1110.54 105.449 1118.69 107.317C1127.52 109.355 1135.59 111.648 1142.89 114.196C1150.37 116.574 1156.31 120.225 1160.73 125.151C1165.14 129.906 1167.35 136.785 1167.35 145.786C1167.52 153.599 1165.48 160.647 1161.24 166.931C1156.99 173.215 1150.88 178.14 1142.89 181.707C1134.91 185.274 1125.49 187.057 1114.62 187.057Z" fill="#0085FF"/>
</svg>
